<svg xmlns="http://www.w3.org/2000/svg" viewBox="0 0 500 500" width="500" height="500">
  <style>
    .st0{fill:#f5f5f5}.st1{fill:#3f51b5}.st2{fill:#e0e0e0}.st3{fill:#bdbdbd}.st4{fill:#9e9e9e}
  </style>
  <circle class="st0" cx="250" cy="250" r="250"/>
  <g>
    <path class="st1" d="M347.5 162.5c-27.6-27.6-72.1-27.6-99.7 0-27.6 27.6-27.6 72.1 0 99.7 22.3 22.3 56.6 26.6 83.3 12.9l54.8 54.8c4.7 4.7 12.3 4.7 17 0 4.7-4.7 4.7-12.3 0-17l-54.8-54.8c13.7-26.8 9.4-61.1-12.9-83.3l12.3-12.3zm-17 82.7c-18.2 18.2-47.5 18.2-65.7 0-18.2-18.2-18.2-47.5 0-65.7 18.2-18.2 47.5-18.2 65.7 0 18.1 18.2 18.1 47.5 0 65.7z"/>
    <g>
      <path class="st2" d="M196 259.1h-98.3c-8.3 0-15 6.7-15 15v108.3c0 8.3 6.7 15 15 15H196c8.3 0 15-6.7 15-15V274.1c0-8.3-6.7-15-15-15z"/>
      <path class="st3" d="M196 259.1h-24.6v138.3H196c8.3 0 15-6.7 15-15V274.1c0-8.3-6.7-15-15-15z"/>
      <path class="st2" d="M145.4 229.8h-40c-7.5 0-13.7 5.9-14.2 13.4-.6 8 5.8 14.9 13.7 14.9h40.9c7.5 0 13.7-5.9 14.2-13.4.6-8.1-5.8-14.9-13.7-14.9h-.9z"/>
      <path class="st4" d="M166.3 213.2H85c-6.8 0-12.5 5.3-12.9 12.1-.5 7.2 5.3 13.5 12.4 13.5h82.2c6.8 0 12.5-5.3 12.9-12.1.4-7.3-5.3-13.5-12.5-13.5h-.8z"/>
      <path class="st3" d="M160.4 197.5h-68.5c-6.1 0-11.2 4.8-11.6 10.9-.4 6.5 4.7 12.1 11.2 12.1h68.5c6.1 0 11.2-4.8 11.6-10.9.4-6.5-4.8-12.1-11.2-12.1z"/>
      <circle class="st4" cx="146.8" cy="327.8" r="32.5"/>
      <circle class="st1" cx="146.8" cy="327.8" r="19.6"/>
    </g>
  </g>
</svg>